<svg id="Layer_1" data-name="Layer 1" xmlns="http://www.w3.org/2000/svg" viewBox="0 0 423.07 97.96"><defs><style>.cls-1,.cls-2{fill:#fff;}.cls-2{font-size:97.96px;font-family:MrEavesXLModOT-Book, Mr Eaves XL Mod OT;}.cls-3{font-family:MrEavesXLModOT-Bold, Mr Eaves XL Mod OT;font-weight:700;letter-spacing:-0.03em;}</style></defs><path class="cls-1" d="M43.21,17l6.48,13.13,1.63,3.3L55,34l14.5,2.11L59,46.29l-2.64,2.57L57,52.49l2.48,14.44-13-6.82L43.21,58.4,40,60.11,27,66.93l2.47-14.44.63-3.63-2.64-2.57L17,36.07,31.46,34l3.64-.53,1.63-3.3L43.21,17m0-15.82L30.45,27,1.92,31.18,22.56,51.31,17.69,79.72,43.21,66.31,68.73,79.72,63.85,51.31,84.5,31.18,56,27,43.21,1.18Z" transform="translate(-1.92 4.53)"/><text class="cls-2" transform="translate(91.56 78.37)">visit<tspan class="cls-3" x="141.85" y="0">Nam</tspan></text></svg>